<svg width="85" height="85" viewBox="0 0 85 85" fill="none" xmlns="http://www.w3.org/2000/svg">
<path d="M66.99 0.960007H17.95C8.51145 0.960007 0.860001 8.61146 0.860001 18.05V67.09C0.860001 76.5285 8.51145 84.18 17.95 84.18H66.99C76.4285 84.18 84.08 76.5285 84.08 67.09V18.05C84.08 8.61146 76.4285 0.960007 66.99 0.960007Z" fill="url(#paint0_linear_2_433)"/>
<path d="M56.55 70.68H65.94L61.79 62.25H52.41L56.55 70.68Z" fill="white"/>
<path d="M53.24 16C50.7 14.76 47.9 13.98 44.95 13.77L41.44 20.89L41.48 20.97H41.73C44.64 20.97 47.37 21.77 49.71 23.17C54.32 25.91 57.43 30.95 57.43 36.67C57.43 40.35 56.14 43.74 54.01 46.42L46.14 30.42L41.49 20.97H41.42L36.76 30.42L27.2 49.8L22.13 60.08L16.9 70.69H26.29L31.52 60.09H43.4C45.97 60.09 48.44 59.65 50.75 58.85C53.45 57.91 55.93 56.47 58.06 54.64L58.43 54.31C63.05 50.17 65.97 44.16 65.97 37.51V36.3C65.97 27.42 60.77 19.69 53.26 16.01L53.24 16ZM35.3 52.36L41.43 39.94L47.08 51.42C44.27 52.63 37.18 52.37 35.3 52.35V52.36Z" fill="white"/>
<defs>
<linearGradient id="paint0_linear_2_433" x1="4.29" y1="7.39" x2="78.23" y2="75.52" gradientUnits="userSpaceOnUse">
<stop stop-color="#3072E6"/>
<stop offset="1" stop-color="#5E05D6"/>
</linearGradient>
</defs>
</svg>
